<svg viewBox="0 0 64 64" xmlns="http://www.w3.org/2000/svg">
  <defs>
    <!-- Gradient for water -->
    <linearGradient id="iconWaterGradient" x1="0%" y1="0%" x2="100%" y2="0%">
      <stop offset="0%" style="stop-color:#3B82F6;stop-opacity:1" />
      <stop offset="50%" style="stop-color:#60A5FA;stop-opacity:1" />
      <stop offset="100%" style="stop-color:#93C5FD;stop-opacity:1" />
    </linearGradient>

    <!-- Gradient for tree -->
    <linearGradient id="iconTreeGradient" x1="0%" y1="0%" x2="0%" y2="100%">
      <stop offset="0%" style="stop-color:#16A34A;stop-opacity:1" />
      <stop offset="30%" style="stop-color:#22C55E;stop-opacity:1" />
      <stop offset="100%" style="stop-color:#4ADE80;stop-opacity:1" />
    </linearGradient>
  </defs>

  <!-- Peaceful waterside - flowing water extended to right -->
  <path d="M4,30 Q7,27 10,30 Q13,33 17,30 Q20,28 24,31 Q26,33 29,30 Q31,28 34,31 Q37,33 40,30 L40,36 L4,36 Z" fill="url(#iconWaterGradient)" opacity="0.8"/>
  <path d="M4,27 Q7,24 10,27 Q13,30 17,27 Q20,25 24,28 Q26,30 29,27 Q31,25 34,28 Q37,30 40,27 L40,33 L4,33 Z" fill="url(#iconWaterGradient)" opacity="0.9"/>
  <path d="M4,24 Q7,21 10,24 Q13,27 17,24 Q20,22 24,25 Q26,27 29,24 Q31,22 34,25 Q37,27 40,24 L40,30 L4,30 Z" fill="url(#iconWaterGradient)" opacity="1"/>

  <!-- Ultra-subtle top wave - cut by half -->
  <path d="M4,26 Q4.05,25.95 5,26 Q5.05,26.05 6,26 Q6.05,25.95 7,26 Q7.05,26.05 8,26 Q8.05,25.95 9,26 Q9.05,26.05 10,26 Q10.05,25.95 11,26 Q11.05,26.05 12,26 Q12.05,25.95 13,26 Q13.05,26.05 14,26 Q14.05,25.95 15,26 Q15.05,26.05 16,26 Q16.05,25.95 17,26 Q17.05,26.05 18,26 Q18.05,25.95 19,26 Q19.05,26.05 20,26 Q20.05,25.95 21,26 Q21.05,26.05 22,26 Q22.05,25.95 23,26 Q23.05,26.05 24,26 Q24.05,25.95 25,26 Q25.05,26.05 26,26 Q26.05,25.95 27,26 Q27.05,26.05 28,26 Q28.05,25.95 29,26 Q29.05,26.05 30,26 Q30.05,25.95 31,26 Q31.05,26.05 32,26 Q32.05,25.95 33,26 Q33.05,26.05 34,26 Q34.05,25.95 35,26 Q35.05,26.05 36,26 Q36.05,25.95 37,26 Q37.05,26.05 38,26 Q38.05,25.95 39,26 Q39.05,26.05 40,26" stroke="#60A5FA" stroke-width="0.12" fill="none" opacity="0.04"/>
  <path d="M4,29 Q4.1,28.9 5,29 Q5.1,29.1 6,29 Q6.1,28.9 7,29 Q7.1,29.1 8,29 Q8.1,28.9 9,29 Q9.1,29.1 10,29 Q10.1,28.9 11,29 Q11.1,29.1 12,29 Q12.1,28.9 13,29 Q13.1,29.1 14,29 Q14.1,28.9 15,29 Q15.1,29.1 16,29 Q16.1,28.9 17,29 Q17.1,29.1 18,29 Q18.1,28.9 19,29 Q19.1,29.1 20,29 Q20.1,28.9 21,29 Q21.1,29.1 22,29 Q22.1,28.9 23,29 Q23.1,29.1 24,29 Q24.1,28.9 25,29 Q25.1,29.1 26,29 Q26.1,28.9 27,29 Q27.1,29.1 28,29 Q28.1,28.9 29,29 Q29.1,29.1 30,29 Q30.1,28.9 31,29 Q31.1,29.1 32,29 Q32.1,28.9 33,29 Q33.1,29.1 34,29 Q34.1,28.9 35,29 Q35.1,29.1 36,29 Q36.1,28.9 37,29 Q37.1,29.1 38,29 Q38.1,28.9 39,29 Q39.1,29.1 40,29" stroke="#60A5FA" stroke-width="0.15" fill="none" opacity="0.06"/>

  <!-- Larger land area curved by flowing water - extended -->
  <path d="M17,30 Q20,32 24,30 Q26,28 29,31 Q31,33 35,30 Q37,28 40,31 L40,36 Q37,35 35,36 Q31,35 29,36 Q26,35 24,36 Q20,35 17,36 Z" fill="#D4A574" opacity="0.7"/>
  <path d="M17,32 Q20,34 24,32 Q26,30 29,33 Q31,35 35,32 Q37,30 40,33 L40,38 Q37,37 35,38 Q31,37 29,38 Q26,37 24,38 Q20,37 17,38 Z" fill="#D4A574" opacity="0.5"/>

  <!-- Strong growing tree solidly planted on larger land -->
  <!-- Tree trunk solidly on extended land -->
  <rect x="28" y="18" width="4" height="15" fill="#8B4513"/>
  <!-- Extensive thin and long tree roots - connected to trunk base -->
  <!-- Primary long roots emerging directly from trunk -->
  <path d="M28,33 Q25,34 20,33 Q21,35 24,34 Q26,33 28,33" fill="none" stroke="#654321" stroke-width="1" opacity="0.9"/>
  <path d="M32,33 Q35,34 40,33 Q39,35 36,34 Q34,33 32,33" fill="none" stroke="#654321" stroke-width="1" opacity="0.9"/>
  <!-- Secondary long roots -->
  <path d="M27,33 Q24,35 19,34 Q20,36 23,35 Q25,33 27,33" fill="none" stroke="#654321" stroke-width="0.8" opacity="0.8"/>
  <path d="M33,33 Q36,35 41,34 Q40,36 37,35 Q35,33 33,33" fill="none" stroke="#654321" stroke-width="0.8" opacity="0.8"/>
  <!-- Tertiary thin roots -->
  <path d="M29,33 Q26,37 21,36 Q22,38 25,37 Q27,33 29,33" fill="none" stroke="#654321" stroke-width="0.5" opacity="0.7"/>
  <path d="M31,33 Q34,37 39,36 Q38,38 35,37 Q33,33 31,33" fill="none" stroke="#654321" stroke-width="0.5" opacity="0.7"/>
  <!-- Fine root tendrils -->
  <path d="M28,33 Q25,38 20,37 Q21,39 24,38 Q26,33 28,33" fill="none" stroke="#654321" stroke-width="0.3" opacity="0.6"/>
  <path d="M32,33 Q35,38 40,37 Q39,39 36,38 Q34,33 32,33" fill="none" stroke="#654321" stroke-width="0.3" opacity="0.6"/>

  <!-- Tree crown on extended land -->
  <circle cx="30" cy="12" r="9" fill="url(#iconTreeGradient)"/>
  <circle cx="26" cy="10" r="6" fill="url(#iconTreeGradient)" opacity="0.9"/>
  <circle cx="34" cy="11" r="7" fill="url(#iconTreeGradient)" opacity="0.9"/>
</svg>