<svg viewBox="0 0 200 80" xmlns="http://www.w3.org/2000/svg">
  <defs>
    <!-- Gradient for water -->
    <linearGradient id="waterGradient" x1="0%" y1="0%" x2="100%" y2="0%">
      <stop offset="0%" style="stop-color:#3B82F6;stop-opacity:1" />
      <stop offset="50%" style="stop-color:#60A5FA;stop-opacity:1" />
      <stop offset="100%" style="stop-color:#93C5FD;stop-opacity:1" />
    </linearGradient>

    <!-- Gradient for tree -->
    <linearGradient id="treeGradient" x1="0%" y1="0%" x2="0%" y2="100%">
      <stop offset="0%" style="stop-color:#16A34A;stop-opacity:1" />
      <stop offset="30%" style="stop-color:#22C55E;stop-opacity:1" />
      <stop offset="100%" style="stop-color:#4ADE80;stop-opacity:1" />
    </linearGradient>

    <!-- Shadow filter -->
    <filter id="shadow" x="-20%" y="-20%" width="140%" height="140%">
      <feDropShadow dx="2" dy="2" stdDeviation="2" fill="#000000" fill-opacity="0.1"/>
    </filter>
  </defs>

  <!-- Background circle -->
  <circle cx="40" cy="40" r="35" fill="white" filter="url(#shadow)"/>

  <!-- Peaceful waterside - flowing water extended to right -->
  <path d="M8,45 Q12,42 16,45 Q20,48 26,45 Q30,43 35,46 Q38,48 42,45 Q46,43 50,46 Q54,48 58,45 Q62,43 66,46 Q70,48 74,45 L74,55 L8,55 Z" fill="url(#waterGradient)" opacity="0.8"/>
  <path d="M8,42 Q12,39 16,42 Q20,45 26,42 Q30,40 35,43 Q38,45 42,42 Q46,40 50,43 Q54,45 58,42 Q62,40 66,43 Q70,45 74,42 L74,52 L8,52 Z" fill="url(#waterGradient)" opacity="0.9"/>
  <path d="M8,39 Q12,36 16,39 Q20,42 26,39 Q30,37 35,40 Q38,42 42,39 Q46,37 50,40 Q54,42 58,39 Q62,37 66,40 Q70,42 74,39 L74,49 L8,49 Z" fill="url(#waterGradient)" opacity="1"/>

  <!-- Ultra-subtle top wave - cut by half -->
  <path d="M8,41 Q8.05,40.95 9,41 Q9.05,41.05 10,41 Q10.05,40.95 11,41 Q11.05,41.05 12,41 Q12.05,40.95 13,41 Q13.05,41.05 14,41 Q14.05,40.95 15,41 Q15.05,41.05 16,41 Q16.05,40.95 17,41 Q17.05,41.05 18,41 Q18.05,40.95 19,41 Q19.05,41.05 20,41 Q20.05,40.95 21,41 Q21.05,41.05 22,41 Q22.05,40.95 23,41 Q23.05,41.05 24,41 Q24.05,40.95 25,41 Q25.05,41.05 26,41 Q26.05,40.95 27,41 Q27.05,41.05 28,41 Q28.05,40.95 29,41 Q29.05,41.05 30,41 Q30.05,40.95 31,41 Q31.05,41.05 32,41 Q32.05,40.95 33,41 Q33.05,41.05 34,41 Q34.05,40.95 35,41 Q35.05,41.05 36,41 Q36.05,40.95 37,41 Q37.05,41.05 38,41 Q38.05,40.95 39,41 Q39.05,41.05 40,41 Q40.05,40.95 41,41 Q41.05,41.05 42,41 Q42.05,40.95 43,41 Q43.05,41.05 44,41 Q44.05,40.95 45,41 Q45.05,41.05 46,41 Q46.05,40.95 47,41 Q47.05,41.05 48,41 Q48.05,40.95 49,41 Q49.05,41.05 50,41 Q50.05,40.95 51,41 Q51.05,41.05 52,41 Q52.05,40.95 53,41 Q53.05,41.05 54,41 Q54.05,40.95 55,41 Q55.05,41.05 56,41 Q56.05,40.95 57,41 Q57.05,41.05 58,41 Q58.05,40.95 59,41 Q59.05,41.05 60,41 Q60.05,40.95 61,41 Q61.05,41.05 62,41 Q62.05,40.95 63,41 Q63.05,41.05 64,41 Q64.05,40.95 65,41 Q65.05,41.05 66,41 Q66.05,40.95 67,41 Q67.05,41.05 68,41 Q68.05,40.95 69,41 Q69.05,41.05 70,41 Q70.05,40.95 71,41 Q71.05,41.05 72,41 Q72.05,40.95 73,41 Q73.05,41.05 74,41" stroke="#60A5FA" stroke-width="0.15" fill="none" opacity="0.04"/>
  <path d="M8,44 Q8.1,43.9 9,44 Q9.1,44.1 10,44 Q10.1,43.9 11,44 Q11.1,44.1 12,44 Q12.1,43.9 13,44 Q13.1,44.1 14,44 Q14.1,43.9 15,44 Q15.1,44.1 16,44 Q16.1,43.9 17,44 Q17.1,44.1 18,44 Q18.1,43.9 19,44 Q19.1,44.1 20,44 Q20.1,43.9 21,44 Q21.1,44.1 22,44 Q22.1,43.9 23,44 Q23.1,44.1 24,44 Q24.1,43.9 25,44 Q25.1,44.1 26,44 Q26.1,43.9 27,44 Q27.1,44.1 28,44 Q28.1,43.9 29,44 Q29.1,44.1 30,44 Q30.1,43.9 31,44 Q31.1,44.1 32,44 Q32.1,43.9 33,44 Q33.1,44.1 34,44 Q34.1,43.9 35,44 Q35.1,44.1 36,44 Q36.1,43.9 37,44 Q37.1,44.1 38,44 Q38.1,43.9 39,44 Q39.1,44.1 40,44 Q40.1,43.9 41,44 Q41.1,44.1 42,44 Q42.1,43.9 43,44 Q43.1,44.1 44,44 Q44.1,43.9 45,44 Q45.1,44.1 46,44 Q46.1,43.9 47,44 Q47.1,44.1 48,44 Q48.1,43.9 49,44 Q49.1,44.1 50,44 Q50.1,43.9 51,44 Q51.1,44.1 52,44 Q52.1,43.9 53,44 Q53.1,44.1 54,44 Q54.1,43.9 55,44 Q55.1,44.1 56,44 Q56.1,43.9 57,44 Q57.1,44.1 58,44 Q58.1,43.9 59,44 Q59.1,44.1 60,44 Q60.1,43.9 61,44 Q61.1,44.1 62,44 Q62.1,43.9 63,44 Q63.1,44.1 64,44 Q64.1,43.9 65,44 Q65.1,44.1 66,44 Q66.1,43.9 67,44 Q67.1,44.1 68,44 Q68.1,43.9 69,44 Q69.1,44.1 70,44 Q70.1,43.9 71,44 Q71.1,44.1 72,44 Q72.1,43.9 73,44 Q73.1,44.1 74,44" stroke="#60A5FA" stroke-width="0.2" fill="none" opacity="0.06"/>
  <path d="M8,47 Q8.1,46.9 9,47 Q9.1,47.1 10,47 Q10.1,46.9 11,47 Q11.1,47.1 12,47 Q12.1,46.9 13,47 Q13.1,47.1 14,47 Q14.1,46.9 15,47 Q15.1,47.1 16,47 Q16.1,46.9 17,47 Q17.1,47.1 18,47 Q18.1,46.9 19,47 Q19.1,47.1 20,47 Q20.1,46.9 21,47 Q21.1,47.1 22,47 Q22.1,46.9 23,47 Q23.1,47.1 24,47 Q24.1,46.9 25,47 Q25.1,47.1 26,47 Q26.1,46.9 27,47 Q27.1,47.1 28,47 Q28.1,46.9 29,47 Q29.1,47.1 30,47 Q30.1,46.9 31,47 Q31.1,47.1 32,47 Q32.1,46.9 33,47 Q33.1,47.1 34,47 Q34.1,46.9 35,47 Q35.1,47.1 36,47 Q36.1,46.9 37,47 Q37.1,47.1 38,47 Q38.1,46.9 39,47 Q39.1,47.1 40,47 Q40.1,46.9 41,47 Q41.1,47.1 42,47 Q42.1,46.9 43,47 Q43.1,47.1 44,47 Q44.1,46.9 45,47 Q45.1,47.1 46,47 Q46.1,46.9 47,47 Q47.1,47.1 48,47 Q48.1,46.9 49,47 Q49.1,47.1 50,47 Q50.1,46.9 51,47 Q51.1,47.1 52,47 Q52.1,46.9 53,47 Q53.1,47.1 54,47 Q54.1,46.9 55,47 Q55.1,47.1 56,47 Q56.1,46.9 57,47 Q57.1,47.1 58,47 Q58.1,46.9 59,47 Q59.1,47.1 60,47 Q60.1,46.9 61,47 Q61.1,47.1 62,47 Q62.1,46.9 63,47 Q63.1,47.1 64,47 Q64.1,46.9 65,47 Q65.1,47.1 66,47 Q66.1,46.9 67,47 Q67.1,47.1 68,47 Q68.1,46.9 69,47 Q69.1,47.1 70,47 Q70.1,46.9 71,47 Q71.1,47.1 72,47 Q72.1,46.9 73,47 Q73.1,47.1 74,47" stroke="#60A5FA" stroke-width="0.2" fill="none" opacity="0.04"/>

  <!-- Larger land area curved by flowing water - extended -->
  <path d="M26,45 Q30,47 35,45 Q38,43 42,46 Q45,48 50,45 Q53,43 58,46 Q62,48 66,45 L66,55 Q62,54 58,55 Q53,54 50,55 Q45,54 42,55 Q38,54 35,55 Q30,54 26,55 Z" fill="#D4A574" opacity="0.7"/>
  <path d="M26,47 Q30,49 35,47 Q38,45 42,48 Q45,50 50,47 Q53,45 58,48 Q62,50 66,47 L66,57 Q62,56 58,57 Q53,56 50,57 Q45,56 42,57 Q38,56 35,57 Q30,56 26,57 Z" fill="#D4A574" opacity="0.5"/>
  <path d="M26,49 Q30,51 35,49 Q38,47 42,50 Q45,52 50,49 Q53,47 58,50 Q62,52 66,49 L66,59 Q62,58 58,59 Q53,58 50,59 Q45,58 42,59 Q38,58 35,59 Q30,58 26,59 Z" fill="#D4A574" opacity="0.3"/>

  <!-- Tiny flowing ripples across extended water - extremely gentle -->
  <circle cx="12" cy="43" r="0.15" fill="#93C5FD" opacity="0.4"/>
  <circle cx="15" cy="40" r="0.1" fill="#93C5FD" opacity="0.25"/>
  <circle cx="22" cy="45" r="0.12" fill="#93C5FD" opacity="0.35"/>
  <circle cx="30" cy="42" r="0.1" fill="#93C5FD" opacity="0.25"/>
  <circle cx="37" cy="47" r="0.15" fill="#93C5FD" opacity="0.4"/>
  <circle cx="45" cy="43" r="0.12" fill="#93C5FD" opacity="0.35"/>
  <circle cx="52" cy="46" r="0.1" fill="#93C5FD" opacity="0.25"/>
  <circle cx="59" cy="42" r="0.15" fill="#93C5FD" opacity="0.4"/>
  <circle cx="66" cy="45" r="0.1" fill="#93C5FD" opacity="0.3"/>

  <!-- Strong growing tree solidly planted on larger land -->
  <!-- Tree trunk solidly on extended land -->
  <rect x="45" y="35" width="5" height="18" fill="#8B4513"/>
  <!-- Extensive thin and long tree roots - connected to trunk base -->
  <!-- Primary long roots emerging directly from trunk -->
  <path d="M45,53 Q41,54 35,53 Q36,55 40,54 Q42,53 45,53" fill="none" stroke="#654321" stroke-width="1.5" opacity="0.9"/>
  <path d="M50,53 Q54,54 60,53 Q59,55 55,54 Q53,53 50,53" fill="none" stroke="#654321" stroke-width="1.5" opacity="0.9"/>
  <!-- Secondary long roots -->
  <path d="M43,53 Q39,55 33,54 Q34,56 38,55 Q40,53 43,53" fill="none" stroke="#654321" stroke-width="1.2" opacity="0.8"/>
  <path d="M52,53 Q56,55 62,54 Q61,56 57,55 Q55,53 52,53" fill="none" stroke="#654321" stroke-width="1.2" opacity="0.8"/>
  <!-- Tertiary thin roots -->
  <path d="M46,53 Q42,56 36,55 Q37,57 41,56 Q43,53 46,53" fill="none" stroke="#654321" stroke-width="0.8" opacity="0.7"/>
  <path d="M49,53 Q53,56 59,55 Q58,57 54,56 Q52,53 49,53" fill="none" stroke="#654321" stroke-width="0.8" opacity="0.7"/>
  <!-- Fine root tendrils -->
  <path d="M47,53 Q43,58 38,57 Q39,59 42,58 Q44,53 47,53" fill="none" stroke="#654321" stroke-width="0.5" opacity="0.6"/>
  <path d="M48,53 Q52,58 57,57 Q56,59 53,58 Q51,53 48,53" fill="none" stroke="#654321" stroke-width="0.5" opacity="0.6"/>
  <!-- Very fine root hairs -->
  <path d="M47.5,53 Q44,60 39,59 Q40,61 43,60 Q45,53 47.5,53" fill="none" stroke="#654321" stroke-width="0.3" opacity="0.5"/>
  <path d="M47.5,53 Q51,60 56,59 Q55,61 52,60 Q50,53 47.5,53" fill="none" stroke="#654321" stroke-width="0.3" opacity="0.5"/>
  <!-- Additional spreading roots -->
  <path d="M44,53 Q40,57 34,56 Q35,58 39,57 Q41,53 44,53" fill="none" stroke="#654321" stroke-width="0.6" opacity="0.7"/>
  <path d="M51,53 Q55,57 61,56 Q60,58 56,57 Q54,53 51,53" fill="none" stroke="#654321" stroke-width="0.6" opacity="0.7"/>
  <path d="M45,53 Q41,59 35,58 Q36,60 40,59 Q42,53 45,53" fill="none" stroke="#654321" stroke-width="0.4" opacity="0.6"/>
  <path d="M50,53 Q54,59 60,58 Q59,60 55,59 Q53,53 50,53" fill="none" stroke="#654321" stroke-width="0.4" opacity="0.6"/>

  <!-- Tree crown - lush and growing on extended land -->
  <circle cx="47.5" cy="25" r="13" fill="url(#treeGradient)"/>
  <circle cx="43" cy="22" r="9" fill="url(#treeGradient)" opacity="0.9"/>
  <circle cx="52" cy="23" r="10" fill="url(#treeGradient)" opacity="0.9"/>
  <circle cx="47.5" cy="18" r="7" fill="url(#treeGradient)" opacity="1"/>

  <!-- Growth rings on trunk (representing growth) -->
  <circle cx="47.5" cy="40" r="1.8" fill="#A0522D" opacity="0.8"/>
  <circle cx="47.5" cy="42" r="1.5" fill="#A0522D" opacity="0.7"/>
  <circle cx="47.5" cy="44" r="1.2" fill="#A0522D" opacity="0.6"/>
  <circle cx="47.5" cy="46" r="1" fill="#A0522D" opacity="0.5"/>

  <!-- Organization name text -->
  <text x="75" y="25" font-family="Arial, sans-serif" font-size="16" font-weight="bold" fill="#1E40AF">Peaceful</text>
  <text x="75" y="42" font-family="Arial, sans-serif" font-size="16" font-weight="bold" fill="#1E40AF">Independence</text>
</svg>